<?xml version="1.0" encoding="utf-8"?>
<!-- Svg Vector Icons : http://www.onlinewebfonts.com/icon -->
<!DOCTYPE svg PUBLIC "-//W3C//DTD SVG 1.1//EN" "http://www.w3.org/Graphics/SVG/1.1/DTD/svg11.dtd">
<svg version="1.1" xmlns="http://www.w3.org/2000/svg" xmlns:xlink="http://www.w3.org/1999/xlink" x="0px" y="0px" viewBox="0 0 1000 1000" enable-background="new 0 0 1000 1000" xml:space="preserve">
<metadata> Svg Vector Icons : http://www.onlinewebfonts.com/icon </metadata>
<g><g transform="translate(0.000000,511.000000) scale(0.100000,-0.100000)"><path fill="white" d="M4695.9,4987.1c-286.3-64.4-574.9-270.8-716.9-514.9l-75.5-131l-113.2,15.5c-410.6,55.5-825.7-210.9-956.6-610.4c-20-62.1-37.7-115.4-39.9-117.6c-2.2-2.2-53.3,11.1-115.4,26.6c-224.2,57.7-437.2-37.7-532.7-239.7c-62.1-137.6-66.6-261.9-11.1-381.8c135.4-290.8,512.7-368.5,739.1-150.9l59.9,57.7l111-115.4c226.4-233,588.2-328.5,898.9-237.5c68.8,20,124.3,42.2,124.3,51.1c0,6.7-26.6,68.8-59.9,137.6c-55.5,108.8-62.1,150.9-62.1,337.4c0,222,22.2,286.3,99.9,286.3c73.2,0,91-51,62.1-173.1c-68.8-306.3,144.3-628.1,501.6-752.4c159.8-55.5,430.6-48.8,590.4,13.3c164.2,64.4,317.4,179.8,410.6,310.7l77.7,108.8l128.7-53.3c250.8-102.1,508.3-91,759.1,35.5c155.4,77.7,339.6,273,417.3,437.3c51,113.2,57.7,157.6,57.7,361.8c2.2,217.5-2.2,244.2-68.8,381.8c-91,195.3-250.8,355.1-446.1,446.1c-133.2,62.1-170.9,71-348.5,71h-199.8l4.4-55.5c4.4-31.1,11.1-111,20-177.6c17.8-168.7-26.6-297.4-104.3-306.3c-88.8-11.1-113.2,37.7-84.3,166.5c22.2,88.8,20,130.9-11.1,230.8c-39.9,137.6-153.1,299.6-268.5,386.2C5352.9,4980.5,4966.7,5049.3,4695.9,4987.1z"/><path fill="white" d="M1058.1,2490.1c-106.5-42.2-119.8-95.4-119.8-483.9c0-355.1,0-361.8,55.5-415.1l53.3-55.5h552.7c570.4,0,674.7-13.3,714.7-88.8c35.5-68.8,24.4-175.4-22.2-222c-42.2-42.2-73.2-44.4-588.2-44.4h-543.8v-2719v-2718.9H916c-279.7,0-355.1-24.4-412.8-137.6c-44.4-84.3-31.1-224.2,28.9-288.5c97.7-111-117.6-106.5,4467.9-106.5c4585.6,0,4370.3-4.4,4468,106.5c59.9,64.4,73.2,204.2,28.8,288.5c-40,79.9-102.1,117.6-213.1,137.6l-77.7,11.1v2426c0,1331.7-2.2,2423.7-6.7,2423.7S8751,288.3,8213.9-95.6c-639.2-457.2-996.6-699.2-1032.1-699.2c-59.9,0-184.2,111-184.2,164.2c0,73.3,55.5,146.5,168.7,224.2l119.9,82.1v441.7c0,244.2-6.7,441.7-13.3,441.7c-6.7,0-432.8-301.9-947.8-670.3c-514.9-366.2-954.4-672.5-976.6-679.2c-64.4-15.5-166.5,40-193.1,108.8c-40,95.4-11.1,164.2,99.9,244.1l99.9,71v597.1v597.1l-159.8-119.8c-88.8-64.4-519.4-375.1-954.4-690.3l-794.6-574.9v-1247.4c0-1229.6,0-1249.6-46.6-1307.3c-59.9-77.7-190.9-79.9-259.7-6.7l-48.8,51.1v2297.2v2297.2l66.6,24.4c37.7,13.3,75.5,51,88.8,84.3c11.1,31.1,22.2,213.1,22.2,399.5c0,328.5-2.2,344-53.3,404l-53.3,62.1l-1029.9,4.4C1568.6,2507.9,1082.5,2501.3,1058.1,2490.1z M4755.9-1860.2v-355.1h-355.1h-355.1v355.1v355.1h355.1h355.1V-1860.2z M6686.9-1860.2v-355.1h-355.1h-355.1v355.1v355.1h355.1h355.1V-1860.2z M8551.3-1860.2v-355.1h-355.1H7841v355.1v355.1h355.1h355.1V-1860.2z"/></g></g>
</svg>
