<?xml version="1.0" encoding="utf-8"?>
<!-- Svg Vector Icons : http://www.onlinewebfonts.com/icon -->
<!DOCTYPE svg PUBLIC "-//W3C//DTD SVG 1.1//EN" "http://www.w3.org/Graphics/SVG/1.1/DTD/svg11.dtd">
<svg version="1.1" xmlns="http://www.w3.org/2000/svg" xmlns:xlink="http://www.w3.org/1999/xlink" x="0px" y="0px" viewBox="0 0 1000 1000" enable-background="new 0 0 1000 1000" xml:space="preserve">
<metadata> Svg Vector Icons : http://www.onlinewebfonts.com/icon </metadata>
<g><g transform="translate(0.000000,511.000000)
scale(0.100000,-0.100000)"><path fill="#00bc8d"  d="M3345.4,4994.5c-392.5-49.1-820.1-156.5-1163.5-296.7c-628.5-252.3-1476.6-794.4-1476.6-943.9c0-65.4,49.1-84.1,385.5-149.5c584.1-109.8,827.1-219.6,1100.5-488.3c121.5-121.5,191.6-217.3,261.7-355.1c172.9-343.4,205.6-523.4,238.3-1306.1c39.7-929.9,86.5-1282.7,233.6-1721.9c348.1-1039.7,1259.3-1941.6,2320.1-2296.7c476.6-158.8,1053.7-212.6,1530.4-142.5c144.9,21,278,44.4,294.4,51.4c23.4,9.3,53.7-39.7,102.8-170.6c177.6-467.3,282.7-878.5,341.1-1348.1c37.4-301.4,79.4-408.9,203.3-507c245.3-198.6,616.8-116.8,764,165.9c51.4,95.8,53.7,126.2,42.1,338.8c-39.7,724.3-336.4,1693.9-792,2579.4C7200.5-559.2,6424.8,520.2,5445.8,1595c-310.8,343.5-1128.5,1158.9-1469.6,1467.3l-198.6,179.9l233.6-135.5c918.2-535.1,1721.9-1149.5,2324.7-1771c710.3-736,1572.4-1943.9,2056.1-2890.2c70.1-137.9,135.5-250,144.9-250c9.3,0,84.1,91.1,168.2,203.3c252.3,334.1,441.6,766.3,542,1221.9c63.1,280.4,63.1,1023.4,2.3,1308.4c-184.6,857.5-593.5,1525.7-1378.5,2252.3C6829,4148.7,5705.2,4751.5,4583.7,4950.1C4275.3,5006.2,3623.4,5027.2,3345.4,4994.5z"/></g></g>
</svg>
