<?xml version="1.0"?>
<svg xmlns:rdf="http://www.w3.org/1999/02/22-rdf-syntax-ns#" xmlns="http://www.w3.org/2000/svg" xmlns:cc="http://web.resource.org/cc/" xmlns:dc="http://purl.org/dc/elements/1.1/" xmlns:svg="http://www.w3.org/2000/svg" id="svg22230" viewBox="0 0 273 510" version="1.0">
  <g id="layer1" transform="matrix(.48780 0 0 .48780 -44.987 -1.6738)">
    <path fill="white" id="path18665" d="m413.53 1038.7s9.6-370.19 10.79-400.82c1.65-42.32 10.79-239.49 10.73-243.35-0.11-6.78-0.18-7.02-1.98-7.02-5.87 0.76-11.21 3.73-17.1 4.42-8.18-1.78-15.9-6.17-22.78-10.86-4.2-4.74-1.54-12.68 0.65-18.44 0.5-1.29 2.48-5.09 3.68-8.84 6.84-21.32 5.94-19.41 10.13-21.59 6.95-2.22 13.51 3.35 18.83 7.47l2.93 2.34c7.87-3.07 16.28-4.52 23.94-8.09 0.19-0.13-1.25-1.88-3.21-3.88-3.2-3.27-9.54-7.43-21.86-14.32-2.3-1.29-26.12-19.61-32.88-25.92-7.68-7.17-14.81-14.37-33.13-33.48-23.4-24.41-35.33-36.25-88.93-88.26-5.84-5.66-49.3-45.09-53.41-48.79-7.56-6.83-109.14-94.026-111.83-96.385-5.38-4.711-6.58-6.375-5.88-8.18 1.17-3.059 12.57 1.026 23.39 8.383 3.18 2.166 105.81 82.592 111.82 87.292 2.87 2.24 61.23 51.11 64.63 53.53 3.88 2.76 60.87 52.17 67.03 58.01 3.38 3.2 79.66 70.45 93.37 82.73 7.19 6.44 12.18 10.28 14.36 11.05 1.83 0.65 3.73 1.48 4.21 1.85s1.7 0.88 2.72 1.13c2.32 0.57 6.97-3.27 7.76-6.42 1.03-4.12 12.35-26.33 15.41-30.25 5.2-6.66 50.23-44.54 54.51-47.85s52.09-40.91 53.82-42.35c13.81-11.5 22.5-18.1 24.36-18.51 1.6-0.35 2.43 1.39 2.45 5.14 0.01 4-4.07 10.72-11.73 19.31-2.82 3.16-46.5 54.52-49.49 57.64s-45.89 51.2-54.64 59.97l-15.92 15.94-0.7 4.62c-1.26 8.33-1.99 10.3-5.01 13.62-1.96 2.39-2.24 5.34-1.85 8.36 0.33 2.57 1.45 8.97 3.27 15.56 0.61 2.2 17.01 63.86 17.59 66.63 0.71 3.38 42.12 125.19 43.05 128.06 0.92 2.87 35.91 129.24 36.47 131.66 10.12 37.03 18.14 74.58 26.64 112 0.91 4.21 2.6 14.91 3.42 22.5-0.07 0.73-0.45 1.19-1.15 1.19-0.68 0-1.44-0.64-1.69-1.41s-1.72-4.66-3.27-8.63c-3.75-9.62-6.95-19.49-9.85-30.38-1.32-4.93-22.75-80.31-24.95-88.04s-39.41-130-41.72-137.29c-11.45-36.12-42.85-127.33-47.39-137.69-7.72-18.46-14.36-37.37-22.52-55.65-2.57-5.53-3.93-7.15-5.72-8.42-1.75-1.23-3.53-2.13-3.96-1.98-0.44 0.14-1.76 2.6-2.95 5.46-2.13 5.14-2.16 5.38-1.88 20.85 0.15 8.61 11.23 232.64 11.42 245.68l5.91 400.6s-69.91 0.1-69.91 0.1z"/>
  </g>
  <metadata>
    <rdf:RDF>
      <cc:Work>
        <dc:format>image/svg+xml</dc:format>
        <dc:type rdf:resource="http://purl.org/dc/dcmitype/StillImage"/>
        <cc:license rdf:resource="http://creativecommons.org/licenses/publicdomain/"/>
        <dc:publisher>
          <cc:Agent rdf:about="http://openclipart.org/">
            <dc:title>Openclipart</dc:title>
          </cc:Agent>
        </dc:publisher>
        <dc:title>Wind Turbine</dc:title>
        <dc:date>2007-03-03T06:58:17</dc:date>
        <dc:description>A black silhouette of a single wind turbine seen from ground level and to the left.</dc:description>
        <dc:source>http://openclipart.org/detail/3386/wind-turbine-by-erlandh</dc:source>
        <dc:creator>
          <cc:Agent>
            <dc:title>erlandh</dc:title>
          </cc:Agent>
        </dc:creator>
        <dc:subject>
          <rdf:Bag>
            <rdf:li>climate change</rdf:li>
            <rdf:li>clip art</rdf:li>
            <rdf:li>clipart</rdf:li>
            <rdf:li>electricity</rdf:li>
            <rdf:li>generation</rdf:li>
            <rdf:li>global warming</rdf:li>
            <rdf:li>image</rdf:li>
            <rdf:li>kinetic energy</rdf:li>
            <rdf:li>media</rdf:li>
            <rdf:li>power</rdf:li>
            <rdf:li>public domain</rdf:li>
            <rdf:li>renewable energy</rdf:li>
            <rdf:li>renewables</rdf:li>
            <rdf:li>sustainable</rdf:li>
            <rdf:li>svg</rdf:li>
            <rdf:li>technology</rdf:li>
            <rdf:li>turbine</rdf:li>
            <rdf:li>wind</rdf:li>
            <rdf:li>wind turbine</rdf:li>
          </rdf:Bag>
        </dc:subject>
      </cc:Work>
      <cc:License rdf:about="http://creativecommons.org/licenses/publicdomain/">
        <cc:permits rdf:resource="http://creativecommons.org/ns#Reproduction"/>
        <cc:permits rdf:resource="http://creativecommons.org/ns#Distribution"/>
        <cc:permits rdf:resource="http://creativecommons.org/ns#DerivativeWorks"/>
      </cc:License>
    </rdf:RDF>
  </metadata>
</svg>
